<?xml version="1.0" encoding="utf-8"?>
<!-- Generator: Adobe Illustrator 27.4.0, SVG Export Plug-In . SVG Version: 6.00 Build 0)  -->
<svg version="1.1" id="Capa_1" xmlns="http://www.w3.org/2000/svg" xmlns:xlink="http://www.w3.org/1999/xlink" x="0px" y="0px"
	 viewBox="0 0 54 57" style="enable-background:new 0 0 54 57;" xml:space="preserve">
<style type="text/css">
	.st0{opacity:7.000000e-02;fill:#7A1C1C;}
</style>
<path class="st0" d="M29.6,23.7c-2.5-1.3-4.2-3.3-5.4-5.6c-1.3-2.4-1.4-5-0.7-7.7c-2.7,2.5-3.4,6-1.3,9.3c1.1,1.7,2.5,3.1,4.2,4.1
	c2.3,1.5,4.6,2.8,6.8,4.3c2.2,1.5,4.2,3.2,5.7,5.4c3.6,5.2,3.4,11.6-0.7,16.6c-2.6,3.2-5.9,4.9-9.9,5.4c-3.9,0.5-7.4-0.2-10.6-2.5
	c-5-3.6-6.5-10.3-3.7-15.4c1.1-2,2.7-3.5,4.9-4.2c0.3-0.1,0.7-0.2,1.1-0.1c0.4,0.1,0.8,0.3,0.9,0.6c0.1,0.3,0,0.8-0.2,1.1
	c-0.5,0.6-1.1,1.1-1.6,1.7c-2.2,2.5-2.8,5.4-1.7,8.5c1.1,3.2,3.4,5.2,6.8,5.8c5.3,1.1,9.3-2.4,10.2-5.8c1.1-4,0-7.5-3.1-10.2
	c-2.2-1.9-4.7-3.3-7.2-4.7c-1.9-1.2-3.7-2.5-5.2-4.3c-4.3-5.2-3.7-12.4,1.4-17.1c0.8-0.7,1.7-1.3,2.5-1.9C22.9,6.7,23,6.4,23,6.2
	c0.2-1.1,0.2-2.3,0.4-3.4c0-0.3,0.2-0.6,0.4-0.9c0.3-0.5,0.6-0.5,1-0.2C26,2.8,27.3,3.9,28.5,5c0.5-0.8,0.9-1.7,1.4-2.5
	c0.3-0.5,0.8-0.9,1.3-1.2c0.8-0.5,1.3-0.4,1.5,0.6c0.2,0.7,0.3,1.5,0.3,2.2c0.2,1.7,0.7,3.3,1.9,4.6c1.5,1.5,2.1,3.5,2.5,5.5
	c0.2,0.7,0.5,1.5,0.8,2.2c0.3,0.7,0.3,0.9-0.3,1.4c-0.3,0.3-0.7,0.5-1,0.9c-0.8,1-1.9,1.4-3.2,1c-0.7-0.2-1.4-0.3-2.1-0.4
	c-1.7-0.3-2.7,0.7-2.5,2.4C29.3,22.3,29.5,22.9,29.6,23.7z M32.5,12.6c0.8,1,2.1,1.9,2.9,2.1C35.3,13.2,34.3,12.4,32.5,12.6z"/>
</svg>
